<svg xmlns="http://www.w3.org/2000/svg" xmlns:xlink="http://www.w3.org/1999/xlink" width="800" zoomAndPan="magnify" viewBox="0 0 600 449.999984" height="600" preserveAspectRatio="xMidYMid meet" version="1.0"><path fill="#ffffff" d="M 84.105469 235.472656 C 84.105469 226.828125 77.605469 220.75 69.617188 220.75 C 61.628906 220.75 55.128906 226.929688 55.128906 235.472656 C 55.128906 243.910156 61.628906 250.191406 69.617188 250.191406 C 77.613281 250.1875 84.105469 244.117188 84.105469 235.472656 Z M 84.222656 261.199219 L 84.222656 254.511719 C 80.28125 259.144531 74.417969 262.023438 67.390625 262.023438 C 52.796875 262.023438 41.714844 250.699219 41.714844 235.472656 C 41.714844 220.339844 53.21875 208.820312 67.71875 208.820312 C 74.539062 208.820312 80.289062 211.703125 84.230469 216.226562 L 84.230469 209.742188 L 97.332031 209.742188 L 97.332031 261.199219 Z M 84.222656 261.199219 " fill-opacity="1" fill-rule="nonzero"/><path fill="#ffffff" d="M 160.976562 249.777344 C 156.390625 249.777344 155.117188 248.128906 155.117188 243.808594 L 155.117188 220.964844 L 163.539062 220.964844 L 163.539062 209.742188 L 155.117188 209.742188 L 155.117188 197.1875 L 141.6875 197.1875 L 141.6875 209.742188 L 124.394531 209.742188 L 124.394531 206.613281 C 124.394531 202.285156 126.101562 200.640625 130.792969 200.640625 L 133.734375 200.640625 L 133.734375 190.65625 L 127.273438 190.65625 C 116.195312 190.65625 110.972656 194.152344 110.972656 204.855469 L 110.972656 209.734375 L 103.515625 209.734375 L 103.515625 220.953125 L 110.972656 220.953125 L 110.972656 261.195312 L 124.402344 261.195312 L 124.402344 220.953125 L 141.699219 220.953125 L 141.699219 246.171875 C 141.699219 256.671875 145.847656 261.199219 156.71875 261.199219 L 163.644531 261.199219 L 163.644531 249.777344 Z M 160.976562 249.777344 " fill-opacity="1" fill-rule="nonzero"/><path fill="#ffffff" d="M 209.132812 230.835938 C 208.183594 224.148438 202.527344 220.136719 195.925781 220.136719 C 189.320312 220.136719 183.882812 224.042969 182.507812 230.835938 Z M 182.390625 238.871094 C 183.355469 246.480469 189 250.804688 196.140625 250.804688 C 201.785156 250.804688 206.160156 248.230469 208.710938 244.117188 L 222.457031 244.117188 C 219.257812 255.023438 209.132812 262.023438 195.820312 262.023438 C 179.730469 262.023438 168.441406 251.113281 168.441406 235.574219 C 168.441406 220.03125 180.378906 208.808594 196.144531 208.808594 C 212.023438 208.808594 223.527344 220.136719 223.527344 235.574219 C 223.527344 236.710938 223.421875 237.835938 223.210938 238.871094 Z M 182.390625 238.871094 " fill-opacity="1" fill-rule="nonzero"/><path fill="#ffffff" d="M 308.90625 235.472656 C 308.90625 227.136719 302.402344 220.75 294.414062 220.75 C 286.429688 220.75 279.925781 226.929688 279.925781 235.472656 C 279.925781 243.910156 286.429688 250.191406 294.414062 250.191406 C 302.402344 250.1875 308.90625 243.808594 308.90625 235.472656 Z M 266.710938 209.742188 L 279.8125 209.742188 L 279.8125 216.433594 C 283.753906 211.695312 289.609375 208.820312 296.644531 208.820312 C 311.027344 208.820312 322.320312 220.246094 322.320312 235.371094 C 322.320312 250.5 310.8125 262.027344 296.324219 262.027344 C 289.609375 262.027344 284.070312 259.453125 280.234375 255.132812 L 280.234375 282.378906 L 266.710938 282.378906 Z M 266.710938 209.742188 " fill-opacity="1" fill-rule="nonzero"/><path fill="#ffffff" d="M 369.546875 235.472656 C 369.546875 226.828125 363.054688 220.75 355.058594 220.75 C 347.070312 220.75 340.566406 226.929688 340.566406 235.472656 C 340.566406 243.910156 347.070312 250.191406 355.058594 250.191406 C 363.054688 250.1875 369.546875 244.117188 369.546875 235.472656 Z M 369.664062 261.199219 L 369.664062 254.511719 C 365.722656 259.144531 359.855469 262.023438 352.828125 262.023438 C 338.234375 262.023438 327.15625 250.699219 327.15625 235.472656 C 327.15625 220.339844 338.660156 208.820312 353.148438 208.820312 C 359.96875 208.820312 365.722656 211.703125 369.664062 216.226562 L 369.664062 209.742188 L 382.765625 209.742188 L 382.765625 261.199219 Z M 369.664062 261.199219 " fill-opacity="1" fill-rule="nonzero"/><path fill="#ffffff" d="M 243.09375 214.785156 C 243.09375 214.785156 246.425781 208.820312 254.59375 208.820312 C 258.089844 208.820312 260.347656 209.976562 260.347656 209.976562 L 260.347656 223.109375 C 260.347656 223.109375 255.417969 220.167969 250.890625 220.757812 C 246.363281 221.347656 243.5 225.371094 243.515625 230.742188 L 243.515625 261.210938 L 229.988281 261.210938 L 229.988281 209.75 L 243.09375 209.75 Z M 243.09375 214.785156 " fill-opacity="1" fill-rule="nonzero"/><path fill="#ffffff" d="M 443.960938 209.742188 L 410.878906 282.210938 L 396.925781 282.210938 L 409.914062 254.199219 L 387.953125 209.742188 L 403.765625 209.742188 L 416.613281 239.445312 L 429.796875 209.742188 Z M 443.960938 209.742188 " fill-opacity="1" fill-rule="nonzero"/><path fill="#ffffff" d="M 549.5625 208.574219 L 516.765625 190.292969 C 507.140625 184.925781 495.105469 191.632812 495.105469 202.371094 L 495.105469 204.25 C 495.105469 205.941406 496.042969 207.511719 497.5625 208.355469 L 503.753906 211.808594 C 505.574219 212.820312 507.839844 211.554688 507.839844 209.53125 L 507.839844 204.863281 C 507.839844 202.53125 510.453125 201.070312 512.542969 202.238281 L 540.949219 218.078125 C 543.039062 219.246094 543.039062 222.160156 540.949219 223.320312 L 512.542969 239.160156 C 510.453125 240.324219 507.839844 238.871094 507.839844 236.535156 L 507.839844 234.054688 C 507.839844 223.3125 495.808594 216.597656 486.171875 221.972656 L 453.375 240.257812 C 443.75 245.621094 443.75 259.050781 453.375 264.417969 L 486.171875 282.699219 C 495.796875 288.066406 507.839844 281.359375 507.839844 270.621094 L 507.839844 268.742188 C 507.839844 267.050781 506.902344 265.488281 505.386719 264.636719 L 499.191406 261.179688 C 497.375 260.160156 495.105469 261.429688 495.105469 263.457031 L 495.105469 268.121094 C 495.105469 270.453125 492.496094 271.910156 490.40625 270.746094 L 462 254.90625 C 459.910156 253.738281 459.910156 250.824219 462 249.65625 L 490.40625 233.816406 C 492.496094 232.652344 495.105469 234.105469 495.105469 236.441406 L 495.105469 238.921875 C 495.105469 249.664062 507.140625 256.378906 516.765625 251.003906 L 549.5625 232.71875 C 559.191406 227.371094 559.191406 213.941406 549.5625 208.574219 Z M 549.5625 208.574219 " fill-opacity="1" fill-rule="nonzero"/></svg>