<svg xmlns="http://www.w3.org/2000/svg" xmlns:xlink="http://www.w3.org/1999/xlink" width="800" zoomAndPan="magnify" viewBox="0 0 600 449.999984" height="600" preserveAspectRatio="xMidYMid meet" version="1.0"><path fill="#ffffff" d="M 298.902344 139.023438 L 298.902344 228.003906 L 303.855469 228.003906 L 303.855469 207.140625 L 306.554688 204.265625 L 330.078125 228.003906 L 336.550781 228.003906 L 309.761719 200.882812 L 331.035156 178.890625 L 324.675781 178.890625 L 303.855469 200.429688 L 303.855469 139.023438 Z M 298.902344 139.023438 " fill-opacity="1" fill-rule="nonzero"/><path fill="#ffffff" d="M 263.671875 235.164062 C 263.671875 235.164062 262.039062 233.808594 259.957031 233.808594 C 259.957031 233.808594 257.480469 233.808594 255.734375 235.613281 C 255.734375 235.613281 253.992188 237.417969 253.992188 239.898438 C 253.992188 239.898438 253.992188 242.378906 255.734375 244.183594 C 255.734375 244.183594 257.480469 245.929688 259.957031 245.929688 C 259.957031 245.929688 262.039062 245.929688 263.671875 244.636719 L 264.460938 245.425781 C 264.460938 245.425781 262.488281 247.058594 259.957031 247.058594 C 259.957031 247.058594 257.03125 247.058594 254.949219 244.917969 C 254.949219 244.917969 252.867188 242.828125 252.867188 239.898438 C 252.867188 239.898438 252.867188 236.964844 254.949219 234.878906 C 254.949219 234.878906 257.03125 232.738281 259.957031 232.738281 C 259.957031 232.738281 262.488281 232.738281 264.460938 234.316406 Z M 263.671875 235.164062 " fill-opacity="1" fill-rule="nonzero"/><path fill="#ffffff" d="M 269.355469 237.8125 C 267.441406 237.8125 266.089844 239.167969 266.089844 239.167969 C 264.742188 240.519531 264.742188 242.4375 264.742188 242.4375 C 264.742188 244.355469 266.089844 245.707031 266.089844 245.707031 C 267.441406 247.0625 269.355469 247.0625 269.355469 247.0625 C 271.550781 247.0625 273.011719 245.199219 273.011719 245.199219 L 273.011719 246.835938 L 274.027344 246.835938 L 274.027344 238.09375 L 273.011719 238.09375 L 273.011719 239.617188 C 271.605469 237.8125 269.355469 237.8125 269.355469 237.8125 Z M 269.355469 238.828125 C 270.820312 238.828125 271.886719 239.84375 271.886719 239.84375 C 272.957031 240.914062 272.957031 242.4375 272.957031 242.4375 C 272.957031 243.902344 271.886719 244.972656 271.886719 244.972656 C 270.820312 246.042969 269.355469 246.042969 269.355469 246.042969 C 267.835938 246.042969 266.824219 244.972656 266.824219 244.972656 C 265.753906 243.902344 265.753906 242.4375 265.753906 242.4375 C 265.753906 240.914062 266.824219 239.84375 266.824219 239.84375 C 267.835938 238.828125 269.355469 238.828125 269.355469 238.828125 Z M 269.355469 238.828125 " fill-opacity="1" fill-rule="nonzero"/><path fill="#ffffff" d="M 288.546875 234.09375 C 288.546875 234.09375 287.925781 234.09375 287.925781 233.472656 C 287.925781 233.472656 287.925781 232.792969 288.546875 232.792969 C 288.546875 232.792969 289.222656 232.792969 289.222656 233.472656 C 289.222656 233.472656 289.222656 234.09375 288.546875 234.09375 " fill-opacity="1" fill-rule="nonzero"/><path fill="#ffffff" d="M 275.996094 232.792969 L 277.066406 232.792969 L 277.066406 246.835938 L 275.996094 246.835938 Z M 275.996094 232.792969 " fill-opacity="1" fill-rule="nonzero"/><path fill="#ffffff" d="M 282.414062 244.917969 L 285.507812 238.09375 L 286.632812 238.09375 L 282.414062 247.398438 L 278.078125 238.09375 L 279.261719 238.09375 Z M 282.414062 244.917969 " fill-opacity="1" fill-rule="nonzero"/><path fill="#ffffff" d="M 291.980469 238.941406 C 291.980469 238.941406 292.824219 237.8125 294.457031 237.8125 C 294.457031 237.8125 295.917969 237.8125 296.929688 238.828125 C 296.929688 238.828125 297.945312 239.84375 297.945312 241.308594 L 297.945312 246.835938 L 296.929688 246.835938 L 296.929688 241.308594 C 296.929688 241.308594 296.929688 240.238281 296.199219 239.503906 C 296.199219 239.503906 295.523438 238.773438 294.457031 238.773438 C 294.457031 238.773438 293.441406 238.773438 292.710938 239.449219 C 292.710938 239.449219 291.980469 240.179688 291.980469 241.308594 L 291.980469 246.835938 L 290.96875 246.835938 L 290.96875 238.09375 L 291.980469 238.09375 Z M 291.980469 238.941406 " fill-opacity="1" fill-rule="nonzero"/><path fill="#ffffff" d="M 288.039062 238.09375 L 289.054688 238.09375 L 289.054688 246.835938 L 288.039062 246.835938 Z M 288.039062 238.09375 " fill-opacity="1" fill-rule="nonzero"/><path fill="#ffffff" d="M 311.394531 232.851562 L 305.824219 238.886719 L 311.339844 246.835938 L 310.042969 246.835938 L 305.09375 239.675781 L 304.078125 240.746094 L 304.078125 246.835938 L 303.066406 246.835938 L 303.066406 232.792969 L 304.078125 232.792969 L 304.078125 239.167969 L 309.933594 232.851562 Z M 311.394531 232.851562 " fill-opacity="1" fill-rule="nonzero"/><path fill="#ffffff" d="M 312.914062 232.792969 L 313.984375 232.792969 L 313.984375 246.835938 L 312.914062 246.835938 Z M 312.914062 232.792969 " fill-opacity="1" fill-rule="nonzero"/><path fill="#ffffff" d="M 320.230469 237.8125 C 318.316406 237.8125 316.96875 239.167969 316.96875 239.167969 C 315.671875 240.464844 315.671875 242.4375 315.671875 242.4375 C 315.671875 244.355469 316.96875 245.652344 316.96875 245.652344 C 318.316406 247.003906 320.230469 247.003906 320.230469 247.003906 C 323.15625 247.003906 324.394531 244.410156 324.394531 244.410156 L 323.496094 244.015625 C 322.480469 245.988281 320.230469 245.988281 320.230469 245.988281 C 318.765625 245.988281 317.753906 244.976562 317.753906 244.976562 C 316.683594 243.960938 316.683594 242.496094 316.683594 242.496094 L 324.84375 242.496094 L 324.84375 242.4375 C 324.84375 240.464844 323.496094 239.167969 323.496094 239.167969 C 322.144531 237.8125 320.230469 237.8125 320.230469 237.8125 Z M 320.230469 238.773438 C 321.46875 238.773438 322.425781 239.5625 322.425781 239.5625 C 323.382812 240.292969 323.722656 241.421875 323.722656 241.421875 L 316.800781 241.421875 C 317.136719 240.292969 318.035156 239.5625 318.035156 239.5625 C 319.050781 238.773438 320.230469 238.773438 320.230469 238.773438 Z M 320.230469 238.773438 " fill-opacity="1" fill-rule="nonzero"/><path fill="#ffffff" d="M 326.421875 233.472656 C 326.421875 233.472656 326.421875 232.792969 327.039062 232.792969 C 327.039062 232.792969 327.660156 232.792969 327.660156 233.472656 C 327.660156 233.472656 327.660156 234.09375 327.039062 234.09375 C 327.039062 234.09375 326.421875 234.09375 326.421875 233.472656 " fill-opacity="1" fill-rule="nonzero"/><path fill="#ffffff" d="M 330.585938 238.09375 L 330.585938 238.941406 C 330.585938 238.941406 331.375 237.8125 333.0625 237.8125 C 333.0625 237.8125 334.527344 237.8125 335.539062 238.828125 C 335.539062 238.828125 336.550781 239.84375 336.550781 241.308594 L 336.550781 246.835938 L 335.480469 246.835938 L 335.480469 241.308594 C 335.480469 241.308594 335.480469 240.238281 334.804688 239.503906 C 334.804688 239.503906 334.074219 238.773438 333.0625 238.773438 C 333.0625 238.773438 331.992188 238.773438 331.316406 239.449219 C 331.316406 239.449219 330.585938 240.179688 330.585938 241.308594 L 330.585938 246.835938 L 329.515625 246.835938 L 329.515625 238.09375 Z M 330.585938 238.09375 " fill-opacity="1" fill-rule="nonzero"/><path fill="#ffffff" d="M 326.535156 238.09375 L 327.546875 238.09375 L 327.546875 246.835938 L 326.535156 246.835938 Z M 326.535156 238.09375 " fill-opacity="1" fill-rule="nonzero"/><path fill="#ffffff" d="M 257.875 185.601562 C 257.875 185.601562 250.839844 192.816406 250.839844 203.25 C 250.839844 203.25 250.839844 213.847656 257.820312 221.066406 C 257.820312 221.066406 264.796875 228.339844 275.378906 228.339844 C 275.378906 228.339844 285.167969 228.339844 292.710938 221.742188 L 289.558594 218.585938 C 289.558594 218.585938 283.144531 224 275.152344 224 C 275.152344 224 266.878906 224 261.082031 217.738281 C 261.082031 217.738281 255.511719 211.59375 255.511719 203.25 C 255.511719 203.25 255.511719 194.960938 261.140625 188.925781 C 261.140625 188.925781 266.9375 182.726562 275.265625 182.726562 C 275.265625 182.726562 283.03125 182.726562 289.109375 187.6875 L 292.09375 184.585938 L 292.09375 184.304688 C 292.09375 184.304688 285.171875 178.382812 275.492188 178.382812 C 275.488281 178.382812 264.964844 178.382812 257.875 185.601562 " fill-opacity="1" fill-rule="nonzero"/></svg>