<svg xmlns="http://www.w3.org/2000/svg" xmlns:xlink="http://www.w3.org/1999/xlink" width="800" zoomAndPan="magnify" viewBox="0 0 600 449.999984" height="600" preserveAspectRatio="xMidYMid meet" version="1.0"><path fill="#ffffff" d="M 300.855469 218.707031 C 307.75 217.414062 317.554688 218.9375 319.78125 229.746094 C 322.007812 240.554688 314.582031 246.308594 308.140625 247.714844 C 301.84375 249.082031 291.152344 248.105469 289.21875 236.480469 C 287.476562 226.042969 295.039062 219.792969 300.855469 218.707031 Z M 234.984375 247.601562 L 196.011719 247.601562 C 195.535156 247.601562 195.035156 247.535156 195.035156 247.050781 C 195.035156 246.507812 195.738281 246.414062 196.394531 246.394531 C 203.964844 246.179688 205.375 245.914062 206.242188 245.015625 C 206.714844 244.519531 207.40625 244.117188 207.40625 240.601562 L 207.40625 192.246094 C 207.40625 187.902344 202.140625 188.589844 198.425781 188.207031 C 197.117188 188.078125 197.011719 187.902344 197.011719 187.519531 C 197.011719 187.140625 197.257812 186.957031 197.941406 186.929688 L 228.441406 186.929688 C 261.976562 186.929688 263.6875 211.492188 263.6875 218.042969 C 263.6875 232.121094 254.398438 247.601562 234.984375 247.601562 Z M 341.765625 247.539062 L 325.464844 247.539062 C 324.945312 247.539062 324.734375 247.4375 324.734375 247.132812 C 324.734375 246.707031 325.417969 246.78125 325.941406 246.707031 C 326.460938 246.636719 329.21875 246.863281 330.007812 245.472656 C 330.585938 244.566406 330.515625 243.101562 330.515625 243.101562 L 330.4375 225.828125 C 330.4375 224.433594 330.023438 224.226562 329.640625 224.007812 C 329.253906 223.785156 328.613281 223.667969 327.265625 224.125 C 325.992188 224.546875 325.117188 224.9375 324.875 224.40625 C 324.828125 224.117188 324.828125 223.863281 326.273438 223.410156 C 327.710938 222.964844 331.214844 221.773438 333.34375 220.59375 C 335.46875 219.40625 335.824219 219.238281 336.324219 219.574219 C 336.824219 219.902344 336.679688 220.707031 336.679688 221.277344 L 336.679688 227.058594 C 337.457031 225.777344 340.015625 221.515625 342.046875 220.261719 C 343.640625 219.269531 344.207031 219.191406 345.195312 219.167969 C 346.382812 219.148438 349.1875 219.878906 349.308594 222.84375 C 349.40625 225.164062 347.699219 226.097656 346.613281 225.949219 C 345.742188 225.828125 345.117188 225.023438 344.601562 224.21875 C 344.082031 223.398438 343.253906 222.914062 342.425781 223.195312 C 341.601562 223.480469 336.964844 226.496094 336.699219 230.777344 C 336.511719 233.933594 336.699219 243.769531 336.699219 243.769531 C 336.699219 245.257812 337.269531 245.835938 337.9375 246.234375 C 338.597656 246.636719 341.03125 246.660156 341.714844 246.753906 C 342.40625 246.851562 342.378906 247.015625 342.378906 247.230469 C 342.378906 247.4375 342.378906 247.542969 341.765625 247.542969 Z M 284.664062 247.539062 L 268.488281 247.539062 C 267.988281 247.539062 267.867188 247.324219 267.867188 247.117188 C 267.867188 246.851562 268.089844 246.683594 268.839844 246.683594 C 269.476562 246.683594 272.402344 246.90625 273.070312 245.382812 C 273.328125 244.800781 273.449219 243.988281 273.449219 243.230469 L 273.449219 225.5 C 273.449219 224.152344 272.410156 223.554688 271.203125 223.847656 C 269.796875 224.167969 268.160156 224.964844 267.867188 224.410156 C 267.648438 223.988281 268.058594 223.710938 269.265625 223.394531 C 270.613281 223.035156 273.570312 222.132812 275.910156 220.804688 C 278.253906 219.480469 278.65625 219.339844 279.152344 219.503906 C 279.652344 219.667969 279.601562 220.546875 279.601562 221.257812 L 279.601562 243.605469 C 279.601562 244.859375 279.769531 245.382812 280.332031 245.90625 C 280.902344 246.425781 282.320312 246.734375 284.164062 246.734375 C 284.996094 246.734375 285.253906 246.832031 285.253906 247.1875 C 285.253906 247.539062 284.996094 247.539062 284.664062 247.539062 Z M 295.558594 234.300781 C 296.359375 241.550781 300.667969 247.191406 306.007812 246.242188 C 311.359375 245.296875 314.039062 240.175781 313.394531 231.980469 C 312.734375 223.640625 308.617188 219.480469 303.078125 219.980469 C 297.351562 220.503906 294.753906 227.042969 295.558594 234.300781 Z M 225.441406 189.019531 L 219.214844 189.019531 C 217.738281 189.019531 217.664062 189.675781 217.664062 190.710938 L 217.664062 244.476562 C 217.664062 245.652344 218.078125 245.792969 219.246094 245.792969 L 223.246094 245.792969 C 238.117188 245.792969 242.109375 244.410156 247.339844 237.445312 C 252.574219 230.476562 253.195312 220.476562 253.195312 217.097656 C 253.195312 213.714844 252.300781 205.234375 247.066406 198.058594 C 241.828125 190.882812 233.085938 189.019531 225.441406 189.019531 Z M 276.117188 208.953125 C 278.3125 208.953125 280.097656 207.164062 280.097656 204.96875 C 280.097656 202.769531 278.3125 200.984375 276.117188 200.984375 C 273.921875 200.984375 272.144531 202.769531 272.144531 204.96875 C 272.144531 207.164062 273.921875 208.953125 276.117188 208.953125 Z M 276.117188 208.953125 " fill-opacity="1" fill-rule="nonzero"/></svg>